<svg width="600" height="960" viewBox="0 0 600 960" fill="none" xmlns="http://www.w3.org/2000/svg">
<g clip-path="url(#clip0_15_2)">
<rect width="600" height="960" fill="black"/>
<path d="M1081.08 552.903C1094.62 581.902 1041.16 640.829 931.78 717.472C822.401 794.114 665.492 882.594 493.572 964.573C321.653 1046.55 147.908 1115.74 8.34781 1157.81C-131.212 1199.87 -225.885 1211.58 -256.048 1190.51C-286.211 1169.43 -249.552 1117.2 -153.668 1044.62C-57.7841 972.046 89.9716 884.698 258.974 800.682C427.977 716.665 605.267 642.423 754.098 593.343C902.929 544.262 1011.89 524.108 1058.39 537.056L994.629 569.422C952.686 557.744 854.416 575.922 720.185 620.187C585.954 664.453 426.056 731.412 273.633 807.186C121.209 882.961 -12.0518 961.74 -98.5294 1027.2C-185.007 1092.65 -218.07 1139.76 -190.866 1158.77C-163.662 1177.77 -78.2766 1167.21 47.5926 1129.28C173.462 1091.34 330.163 1028.94 485.217 955C640.271 881.063 781.788 801.263 880.436 732.139C979.084 663.015 1027.3 609.869 1015.09 583.715L1081.08 552.903Z" fill="#DAA520" fill-opacity="0.71"/>
<path d="M915.711 -251.558C928.679 -223.448 874.529 -165.679 764.484 -90.2261C654.44 -14.7727 496.938 72.5798 324.625 153.726C152.312 234.872 -21.6002 303.59 -161.064 345.636C-300.528 387.682 -394.85 399.833 -424.48 379.569C-454.11 359.305 -416.776 308.181 -320.217 236.793C-223.657 165.406 -75.2754 79.228 94.1729 -3.8776C263.621 -86.9832 441.143 -160.644 589.943 -209.593C738.744 -258.542 847.413 -279.025 893.428 -266.797L829.488 -234.794C787.987 -245.823 689.978 -227.349 555.773 -183.202C421.569 -139.055 261.461 -72.6194 108.635 2.33415C-44.1921 77.2877 -178.018 155.012 -265.106 219.397C-352.194 283.782 -385.866 329.891 -359.142 348.167C-332.419 366.443 -247.349 355.485 -121.566 317.563C4.21798 279.641 161.07 217.664 316.481 144.478C471.891 71.2916 613.943 -7.49221 713.193 -75.5441C812.444 -143.596 861.282 -195.698 849.585 -221.05L915.711 -251.558Z" fill="#DAA520" fill-opacity="0.71"/>
</g>
<defs>
<clipPath id="clip0_15_2">
<rect width="600" height="960" fill="white"/>
</clipPath>
</defs>
</svg>
