<svg width="40" height="40" viewBox="0 0 240 240" fill="none" xmlns="http://www.w3.org/2000/svg">
<rect x="6" y="6" width="228" height="228" rx="34" stroke="#DAA520" stroke-width="12"/>
<path d="M195 120C195 161.421 161.421 195 120 195C78.5786 195 45 161.421 45 120C45 78.5786 78.5786 45 120 45C161.421 45 195 78.5786 195 120ZM60 120C60 153.137 86.8629 180 120 180C153.137 180 180 153.137 180 120C180 86.8629 153.137 60 120 60C86.8629 60 60 86.8629 60 120Z" fill="#DAA520"/>
<circle cx="195" cy="47" r="10" fill="#DAA520"/>
</svg>
