<svg width="40" height="63" viewBox="0 0 240 263" fill="none" xmlns="http://www.w3.org/2000/svg">
<rect x="6" y="6" width="228" height="228" rx="34" stroke="#DAA520" stroke-width="12"/>
<path d="M204.811 178.404C206.579 180.526 206.306 183.691 204.225 185.506C196.792 191.987 185.268 202.016 177.27 202.883C167.73 203.916 157.169 202.581 146.189 198.955C135.208 195.329 124.024 189.482 113.275 181.748C102.525 174.014 92.4211 164.545 83.5388 153.881C74.6566 143.217 67.1704 131.567 61.5077 119.596C55.845 107.625 52.1167 95.5681 50.5355 84.1132C48.9544 72.6582 49.5515 62.0297 52.2927 52.8344C54.5919 45.122 64.0101 32.5497 70.9094 25.4291C72.831 23.446 75.9737 23.7201 77.741 25.8419L102.905 56.054C104.672 58.1759 104.28 61.2004 101.819 62.4533C95.143 65.8521 84.2285 70.3374 82.8849 74.8445C81.1682 80.6032 80.7942 87.2595 81.7844 94.4334C82.7746 101.607 85.1096 109.158 88.656 116.655C92.2023 124.152 96.8907 131.448 102.453 138.127C108.016 144.805 114.344 150.735 121.076 155.579C127.808 160.422 134.812 164.084 141.689 166.355C148.566 168.626 155.18 169.462 161.154 168.815C165.845 168.307 171.144 156.985 175.219 150.467C176.683 148.125 179.684 148.235 181.451 150.357L204.811 178.404Z" fill="#DAA520"/>
</svg>
