<svg width="40" height="81" viewBox="0 0 240 281" fill="none" xmlns="http://www.w3.org/2000/svg">
<path d="M40 6H200C218.778 6 234 21.2223 234 40V200C234 218.778 218.778 234 200 234H40C21.2223 234 6 218.778 6 200V40C6 21.2223 21.2223 6 40 6Z" stroke="#DAA520" stroke-width="12"/>
<path d="M180.982 96.4564C176.133 120.613 159.139 150.341 142.818 174.537C134.737 186.518 126.964 196.936 121.212 204.358C119.328 206.79 117.661 208.898 116.275 210.632C114.814 208.882 113.054 206.744 111.061 204.27C105.089 196.855 97.0562 186.45 88.8064 174.486C72.1101 150.274 55.2561 120.699 51.8277 96.7856C48.4432 73.1777 55.7465 56.0086 67.9011 44.6241C80.2538 33.054 98.1326 27 116.376 27C134.148 27 152.37 34.9539 165.122 47.7986C177.799 60.5686 184.731 77.7774 180.982 96.4564Z" stroke="#DAA520" stroke-width="12"/>
<path d="M156 90C156 112.091 138.091 130 116 130C93.9086 130 76 112.091 76 90C76 67.9086 93.9086 50 116 50C138.091 50 156 67.9086 156 90ZM86 90C86 106.569 99.4315 120 116 120C132.569 120 146 106.569 146 90C146 73.4315 132.569 60 116 60C99.4315 60 86 73.4315 86 90Z" fill="#DAA520"/>
</svg>
