<svg width="40" height="40" viewBox="0 0 240 240" fill="none" xmlns="http://www.w3.org/2000/svg">
<rect x="6" y="6" width="228" height="228" rx="34" stroke="#DAA520" stroke-width="12"/>
<path d="M48.7036 207C54.9981 191 48.7036 178.107 37.0188 122.194C36.5711 101.965 44.1504 82.3492 58.1755 67.4383C72.2005 52.5274 91.588 43.4732 112.293 42.1645C132.999 40.8558 153.422 47.3938 169.304 60.4144C185.186 73.435 195.298 91.9327 197.532 112.048C199.766 132.164 193.949 152.344 181.294 168.378C168.639 184.412 150.236 196.206 129.519 197.107C72.0187 199.607 62.6632 196 48.7036 207L79 177.5C96.5967 188.946 110.319 189.441 127.853 186.839C145.387 184.237 161.214 175.133 172.032 161.427C182.849 147.721 187.822 130.47 185.912 113.275C184.003 96.0803 175.358 80.2683 161.783 69.1381C148.207 58.0079 130.748 52.4191 113.049 53.5378C95.3501 54.6565 78.7774 62.3962 66.7886 75.1422C54.7998 87.8883 48.3209 104.656 48.7036 121.948C49.0862 139.239 54.2472 156.148 66.7886 168.378L48.7036 207Z" fill="#DAA520"/>
<path d="M167.989 143.246C165.118 146.087 153.384 159.968 148.9 160.741C144.416 161.514 139.321 161.185 133.906 159.773C128.492 158.361 122.864 155.893 117.343 152.511C111.823 149.128 106.518 144.898 101.732 140.06C96.9458 135.222 92.7721 129.873 89.4492 124.316C86.1262 118.76 83.719 113.105 82.3649 107.676C81.0109 102.247 80.7366 97.1488 81.5577 92.6732C82.3788 88.1975 96.7522 76.1693 99.6233 73.3288L107.53 94.474C105.732 96.253 97.7828 99.4961 97.2686 102.299C96.7544 105.102 96.9262 108.295 97.7741 111.695C98.6221 115.095 100.13 118.636 102.211 122.116C104.292 125.596 106.906 128.946 109.903 131.976C112.9 135.006 116.223 137.655 119.68 139.773C123.137 141.892 126.662 143.437 130.053 144.321C133.444 145.206 136.634 145.412 139.443 144.928C142.251 144.443 144.607 135.547 146.405 133.768L167.989 143.246Z" fill="#DAA520"/>
</svg>
